<svg xmlns="http://www.w3.org/2000/svg" xmlns:xlink="http://www.w3.org/1999/xlink" width="299" zoomAndPan="magnify" viewBox="0 0 224.25 231" height="308" preserveAspectRatio="xMidYMid meet" version="1.0"><defs><g/><clipPath id="ab577ab5cd"><path d="M 0 0.386719 L 223.503906 0.386719 L 223.503906 230.613281 L 0 230.613281 Z M 0 0.386719 " clip-rule="nonzero"/></clipPath><clipPath id="dc13fae3c4"><path d="M 56 0.386719 L 106 0.386719 L 106 27 L 56 27 Z M 56 0.386719 " clip-rule="nonzero"/></clipPath><clipPath id="bc026b2215"><path d="M 117 203 L 167 203 L 167 229.867188 L 117 229.867188 Z M 117 203 " clip-rule="nonzero"/></clipPath></defs><g clip-path="url(#ab577ab5cd)"><path fill="#ffffff" d="M 0 0.386719 L 223.503906 0.386719 L 223.503906 230.613281 L 0 230.613281 Z M 0 0.386719 " fill-opacity="1" fill-rule="nonzero"/></g><g fill="#000000" fill-opacity="1"><g transform="translate(52.502244, 121.675137)"><g><path d="M 22.046875 -13.484375 C 22.046875 -11.328125 22.15625 -9.570312 22.375 -8.21875 C 22.601562 -6.863281 23.054688 -5.816406 23.734375 -5.078125 C 24.410156 -4.347656 25.34375 -3.851562 26.53125 -3.59375 C 27.71875 -3.34375 29.300781 -3.21875 31.28125 -3.21875 L 31.28125 0 L 3.8125 0 L 3.8125 -3.21875 C 5.789062 -3.21875 7.382812 -3.34375 8.59375 -3.59375 C 9.8125 -3.851562 10.757812 -4.335938 11.4375 -5.046875 C 12.113281 -5.753906 12.566406 -6.742188 12.796875 -8.015625 C 13.023438 -9.285156 13.140625 -10.910156 13.140625 -12.890625 L 13.140625 -52.390625 C 13.140625 -54.535156 13.007812 -56.242188 12.75 -57.515625 C 12.5 -58.785156 12.046875 -59.757812 11.390625 -60.4375 C 10.742188 -61.113281 9.882812 -61.550781 8.8125 -61.75 C 7.738281 -61.945312 6.351562 -62.046875 4.65625 -62.046875 L 4.65625 -65.265625 L 30.4375 -65.265625 L 30.4375 -62.046875 C 28.738281 -62.046875 27.351562 -61.929688 26.28125 -61.703125 C 25.207031 -61.484375 24.34375 -61.003906 23.6875 -60.265625 C 23.039062 -59.535156 22.601562 -58.503906 22.375 -57.171875 C 22.15625 -55.847656 22.046875 -54.054688 22.046875 -51.796875 L 22.046875 -30.859375 L 43.234375 -56.375 C 44.359375 -57.78125 44.921875 -58.878906 44.921875 -59.671875 C 44.921875 -61.253906 43.3125 -62.046875 40.09375 -62.046875 L 40.09375 -65.265625 L 60.515625 -65.265625 L 60.515625 -62.140625 C 59.390625 -62.140625 58.398438 -62.066406 57.546875 -61.921875 C 56.703125 -61.773438 55.867188 -61.476562 55.046875 -61.03125 C 54.234375 -60.582031 53.375 -59.929688 52.46875 -59.078125 C 51.5625 -58.234375 50.515625 -57.132812 49.328125 -55.78125 L 33.390625 -37.375 L 58.15625 -7.625 C 59.5625 -5.988281 60.882812 -4.84375 62.125 -4.1875 C 63.375 -3.539062 65.046875 -3.21875 67.140625 -3.21875 L 67.140625 0 L 41.109375 0 L 41.109375 -3.21875 C 43.316406 -3.21875 44.898438 -3.398438 45.859375 -3.765625 C 46.816406 -4.140625 47.296875 -4.722656 47.296875 -5.515625 C 47.296875 -5.960938 47.066406 -6.609375 46.609375 -7.453125 C 46.160156 -8.304688 45.429688 -9.351562 44.421875 -10.59375 L 27.890625 -30.9375 L 22.046875 -24.15625 Z M 22.046875 -13.484375 "/></g></g></g><g fill="#000000" fill-opacity="1"><g transform="translate(98.041075, 183.048825)"><g><path d="M 22.09375 -35.9375 C 25.15625 -35.9375 27.71875 -36.117188 29.78125 -36.484375 C 31.851562 -36.859375 33.492188 -37.441406 34.703125 -38.234375 C 35.921875 -39.023438 36.800781 -40.046875 37.34375 -41.296875 C 37.882812 -42.546875 38.15625 -44.019531 38.15625 -45.71875 L 41.125 -45.71875 L 41.125 -22.515625 L 38.15625 -22.515625 C 38.15625 -24.210938 37.910156 -25.679688 37.421875 -26.921875 C 36.941406 -28.171875 36.09375 -29.207031 34.875 -30.03125 C 33.65625 -30.851562 32.007812 -31.476562 29.9375 -31.90625 C 27.875 -32.332031 25.257812 -32.546875 22.09375 -32.546875 L 22.09375 -13.34375 C 22.09375 -11.46875 22.316406 -9.921875 22.765625 -8.703125 C 23.222656 -7.484375 24.003906 -6.492188 25.109375 -5.734375 C 26.210938 -4.972656 27.671875 -4.4375 29.484375 -4.125 C 31.296875 -3.8125 33.535156 -3.65625 36.203125 -3.65625 C 39.203125 -3.65625 41.75 -3.863281 43.84375 -4.28125 C 45.9375 -4.707031 47.691406 -5.429688 49.109375 -6.453125 C 50.523438 -7.472656 51.65625 -8.816406 52.5 -10.484375 C 53.351562 -12.160156 54.066406 -14.242188 54.640625 -16.734375 L 57.859375 -16.734375 L 56.59375 0 L 3.828125 0 L 3.828125 -3.234375 C 5.804688 -3.285156 7.40625 -3.453125 8.625 -3.734375 C 9.84375 -4.015625 10.789062 -4.492188 11.46875 -5.171875 C 12.144531 -5.859375 12.597656 -6.820312 12.828125 -8.0625 C 13.054688 -9.3125 13.171875 -10.929688 13.171875 -12.921875 L 13.171875 -52.515625 C 13.171875 -54.492188 13.070312 -56.09375 12.875 -57.3125 C 12.675781 -58.53125 12.28125 -59.492188 11.6875 -60.203125 C 11.09375 -60.910156 10.226562 -61.390625 9.09375 -61.640625 C 7.957031 -61.898438 6.484375 -62.085938 4.671875 -62.203125 L 4.671875 -65.421875 L 53.78125 -65.421875 L 54.546875 -50.46875 L 51.578125 -50.46875 C 51.234375 -52.738281 50.675781 -54.59375 49.90625 -56.03125 C 49.144531 -57.476562 48.097656 -58.625 46.765625 -59.46875 C 45.441406 -60.320312 43.757812 -60.914062 41.71875 -61.25 C 39.675781 -61.59375 37.210938 -61.765625 34.328125 -61.765625 L 23.53125 -61.765625 C 22.570312 -61.765625 22.09375 -61.285156 22.09375 -60.328125 Z M 22.09375 -35.9375 "/></g></g></g><path fill="#000000" d="M 10.402344 142.042969 C 10.050781 142.042969 9.730469 141.808594 9.640625 141.453125 C 5.160156 124.050781 5.203125 105.664062 9.769531 88.28125 C 14.472656 70.371094 23.917969 53.949219 37.074219 40.777344 C 50.230469 27.609375 66.644531 18.160156 84.539062 13.453125 C 101.90625 8.882812 120.277344 8.835938 137.667969 13.324219 C 138.085938 13.429688 138.339844 13.859375 138.234375 14.28125 C 138.125 14.699219 137.695312 14.953125 137.277344 14.847656 C 101.933594 5.726562 63.964844 16.089844 38.1875 41.890625 C 12.40625 67.691406 2.050781 105.691406 11.164062 141.0625 C 11.269531 141.480469 11.019531 141.910156 10.597656 142.019531 C 10.53125 142.035156 10.464844 142.042969 10.402344 142.042969 Z M 10.402344 142.042969 " fill-opacity="1" fill-rule="nonzero"/><g clip-path="url(#dc13fae3c4)"><path fill="#000000" d="M 57.207031 26.519531 C 57.027344 26.519531 56.847656 26.457031 56.699219 26.332031 C 56.394531 26.074219 56.332031 25.628906 56.554688 25.292969 C 57.058594 24.546875 57.589844 23.804688 58.128906 23.085938 C 61.667969 18.375 65.941406 14.292969 70.824219 10.949219 C 80.347656 4.429688 92.394531 0.675781 104.75 0.386719 C 105.132812 0.378906 105.472656 0.648438 105.539062 1.03125 C 105.609375 1.410156 105.390625 1.785156 105.027344 1.914062 C 92.089844 6.449219 79.539062 12.28125 67.738281 19.242188 C 65.296875 20.683594 62.457031 22.425781 59.910156 24.449219 C 59.125 25.074219 58.414062 25.683594 57.746094 26.304688 C 57.597656 26.449219 57.402344 26.519531 57.207031 26.519531 Z M 99.34375 2.316406 C 89.238281 3.410156 79.589844 6.859375 71.714844 12.25 C 67.976562 14.808594 64.605469 17.8125 61.664062 21.210938 C 63.472656 19.96875 65.296875 18.859375 66.941406 17.890625 C 77.257812 11.804688 88.132812 6.582031 99.34375 2.316406 Z M 99.34375 2.316406 " fill-opacity="1" fill-rule="nonzero"/></g><path fill="#000000" d="M 61.828125 23.886719 C 61.558594 23.886719 61.289062 23.742188 61.144531 23.488281 C 60.929688 23.109375 61.066406 22.628906 61.441406 22.414062 C 61.765625 22.230469 62.097656 22.050781 62.425781 21.871094 C 62.4375 21.867188 62.445312 21.863281 62.457031 21.855469 C 68.355469 18.691406 75.023438 16.613281 81.75 15.839844 C 93.214844 14.523438 105.621094 16.832031 116.675781 22.34375 C 117.023438 22.515625 117.191406 22.914062 117.074219 23.285156 C 116.960938 23.652344 116.59375 23.882812 116.207031 23.824219 C 102.660156 21.792969 88.847656 21.089844 75.148438 21.734375 C 71.222656 21.917969 67.042969 22.234375 63.101562 23.292969 C 62.804688 23.453125 62.511719 23.617188 62.21875 23.78125 C 62.09375 23.855469 61.960938 23.886719 61.828125 23.886719 Z M 84.996094 19.933594 C 93.683594 19.933594 102.382812 20.464844 110.992188 21.527344 C 101.546875 17.773438 91.402344 16.316406 81.925781 17.40625 C 77.480469 17.917969 73.058594 19.015625 68.882812 20.632812 C 70.976562 20.390625 73.058594 20.257812 75.078125 20.164062 C 78.378906 20.011719 81.6875 19.933594 84.996094 19.933594 Z M 84.996094 19.933594 " fill-opacity="1" fill-rule="nonzero"/><path fill="#000000" d="M 115.671875 4.9375 C 115.671875 5.25 115.613281 5.550781 115.496094 5.839844 C 115.375 6.128906 115.203125 6.382812 114.984375 6.605469 C 114.761719 6.824219 114.507812 6.996094 114.21875 7.117188 C 113.929688 7.234375 113.628906 7.296875 113.316406 7.296875 C 113.003906 7.296875 112.703125 7.234375 112.414062 7.117188 C 112.125 6.996094 111.871094 6.824219 111.648438 6.605469 C 111.429688 6.382812 111.257812 6.128906 111.136719 5.839844 C 111.019531 5.550781 110.957031 5.25 110.957031 4.9375 C 110.957031 4.625 111.019531 4.324219 111.136719 4.035156 C 111.257812 3.746094 111.429688 3.488281 111.648438 3.269531 C 111.871094 3.046875 112.125 2.875 112.414062 2.757812 C 112.703125 2.636719 113.003906 2.578125 113.316406 2.578125 C 113.628906 2.578125 113.929688 2.636719 114.21875 2.757812 C 114.507812 2.875 114.761719 3.046875 114.984375 3.269531 C 115.203125 3.488281 115.375 3.746094 115.496094 4.035156 C 115.613281 4.324219 115.671875 4.625 115.671875 4.9375 Z M 115.671875 4.9375 " fill-opacity="1" fill-rule="nonzero"/><path fill="#000000" d="M 140.210938 13.984375 C 140.210938 14.296875 140.152344 14.597656 140.03125 14.886719 C 139.914062 15.175781 139.742188 15.429688 139.519531 15.652344 C 139.300781 15.875 139.046875 16.042969 138.757812 16.164062 C 138.46875 16.285156 138.167969 16.34375 137.855469 16.34375 C 137.542969 16.34375 137.242188 16.285156 136.953125 16.164062 C 136.664062 16.042969 136.410156 15.875 136.1875 15.652344 C 135.964844 15.429688 135.796875 15.175781 135.675781 14.886719 C 135.554688 14.597656 135.496094 14.296875 135.496094 13.984375 C 135.496094 13.671875 135.554688 13.371094 135.675781 13.082031 C 135.796875 12.792969 135.964844 12.535156 136.1875 12.316406 C 136.410156 12.09375 136.664062 11.925781 136.953125 11.804688 C 137.242188 11.683594 137.542969 11.625 137.855469 11.625 C 138.167969 11.625 138.46875 11.683594 138.757812 11.804688 C 139.046875 11.925781 139.300781 12.09375 139.519531 12.316406 C 139.742188 12.535156 139.914062 12.792969 140.03125 13.082031 C 140.152344 13.371094 140.210938 13.671875 140.210938 13.984375 Z M 140.210938 13.984375 " fill-opacity="1" fill-rule="nonzero"/><path fill="#000000" d="M 129.097656 21.769531 C 129.097656 22.082031 129.035156 22.382812 128.917969 22.671875 C 128.796875 22.960938 128.628906 23.21875 128.40625 23.4375 C 128.183594 23.660156 127.929688 23.832031 127.640625 23.949219 C 127.351562 24.070312 127.050781 24.128906 126.738281 24.128906 C 126.425781 24.128906 126.125 24.070312 125.835938 23.949219 C 125.546875 23.832031 125.292969 23.660156 125.070312 23.4375 C 124.851562 23.21875 124.679688 22.960938 124.5625 22.671875 C 124.441406 22.382812 124.382812 22.082031 124.382812 21.769531 C 124.382812 21.457031 124.441406 21.15625 124.5625 20.867188 C 124.679688 20.578125 124.851562 20.324219 125.070312 20.101562 C 125.292969 19.882812 125.546875 19.710938 125.835938 19.589844 C 126.125 19.472656 126.425781 19.410156 126.738281 19.410156 C 127.050781 19.410156 127.351562 19.472656 127.640625 19.589844 C 127.929688 19.710938 128.183594 19.882812 128.40625 20.101562 C 128.628906 20.324219 128.796875 20.578125 128.917969 20.867188 C 129.035156 21.15625 129.097656 21.457031 129.097656 21.769531 Z M 129.097656 21.769531 " fill-opacity="1" fill-rule="nonzero"/><path fill="#000000" d="M 18.738281 158.171875 C 18.738281 158.484375 18.679688 158.785156 18.558594 159.074219 C 18.441406 159.363281 18.269531 159.621094 18.046875 159.839844 C 17.828125 160.0625 17.570312 160.234375 17.285156 160.351562 C 16.996094 160.472656 16.695312 160.53125 16.382812 160.53125 C 16.070312 160.53125 15.769531 160.472656 15.480469 160.351562 C 15.191406 160.234375 14.933594 160.0625 14.714844 159.839844 C 14.492188 159.621094 14.324219 159.363281 14.203125 159.074219 C 14.082031 158.785156 14.023438 158.484375 14.023438 158.171875 C 14.023438 157.859375 14.082031 157.558594 14.203125 157.269531 C 14.324219 156.980469 14.492188 156.726562 14.714844 156.503906 C 14.933594 156.28125 15.191406 156.113281 15.480469 155.992188 C 15.769531 155.875 16.070312 155.8125 16.382812 155.8125 C 16.695312 155.8125 16.996094 155.875 17.285156 155.992188 C 17.570312 156.113281 17.828125 156.28125 18.046875 156.503906 C 18.269531 156.726562 18.441406 156.980469 18.558594 157.269531 C 18.679688 157.558594 18.738281 157.859375 18.738281 158.171875 Z M 18.738281 158.171875 " fill-opacity="1" fill-rule="nonzero"/><path fill="#000000" d="M 33.109375 181.304688 C 33.109375 181.617188 33.050781 181.917969 32.929688 182.207031 C 32.8125 182.496094 32.640625 182.75 32.417969 182.972656 C 32.199219 183.195312 31.945312 183.363281 31.65625 183.484375 C 31.367188 183.605469 31.066406 183.664062 30.753906 183.664062 C 30.441406 183.664062 30.140625 183.605469 29.851562 183.484375 C 29.5625 183.363281 29.304688 183.195312 29.085938 182.972656 C 28.863281 182.75 28.695312 182.496094 28.574219 182.207031 C 28.453125 181.917969 28.394531 181.617188 28.394531 181.304688 C 28.394531 180.992188 28.453125 180.691406 28.574219 180.402344 C 28.695312 180.113281 28.863281 179.859375 29.085938 179.636719 C 29.304688 179.414062 29.5625 179.246094 29.851562 179.125 C 30.140625 179.003906 30.441406 178.945312 30.753906 178.945312 C 31.066406 178.945312 31.367188 179.003906 31.65625 179.125 C 31.945312 179.246094 32.199219 179.414062 32.417969 179.636719 C 32.640625 179.859375 32.8125 180.113281 32.929688 180.402344 C 33.050781 180.691406 33.109375 180.992188 33.109375 181.304688 Z M 33.109375 181.304688 " fill-opacity="1" fill-rule="nonzero"/><path fill="#000000" d="M 52.976562 199.929688 C 52.976562 200.242188 52.914062 200.542969 52.796875 200.832031 C 52.675781 201.121094 52.503906 201.375 52.285156 201.597656 C 52.0625 201.820312 51.808594 201.988281 51.519531 202.109375 C 51.230469 202.230469 50.929688 202.289062 50.617188 202.289062 C 50.304688 202.289062 50.003906 202.230469 49.714844 202.109375 C 49.425781 201.988281 49.171875 201.820312 48.949219 201.597656 C 48.730469 201.375 48.558594 201.121094 48.4375 200.832031 C 48.320312 200.542969 48.257812 200.242188 48.257812 199.929688 C 48.257812 199.617188 48.320312 199.316406 48.4375 199.027344 C 48.558594 198.738281 48.730469 198.484375 48.949219 198.261719 C 49.171875 198.039062 49.425781 197.871094 49.714844 197.75 C 50.003906 197.628906 50.304688 197.570312 50.617188 197.570312 C 50.929688 197.570312 51.230469 197.628906 51.519531 197.75 C 51.808594 197.871094 52.0625 198.039062 52.285156 198.261719 C 52.503906 198.484375 52.675781 198.738281 52.796875 199.027344 C 52.914062 199.316406 52.976562 199.617188 52.976562 199.929688 Z M 52.976562 199.929688 " fill-opacity="1" fill-rule="nonzero"/><path fill="#000000" d="M 66.300781 21.640625 C 66.027344 21.640625 65.757812 21.496094 65.613281 21.238281 C 65.402344 20.859375 65.539062 20.382812 65.917969 20.167969 C 84.191406 9.921875 113.574219 4.035156 113.871094 3.976562 C 114.296875 3.894531 114.710938 4.171875 114.792969 4.59375 C 114.878906 5.023438 114.601562 5.433594 114.175781 5.519531 C 113.882812 5.574219 84.738281 11.414062 66.683594 21.539062 C 66.5625 21.609375 66.433594 21.640625 66.300781 21.640625 Z M 66.300781 21.640625 " fill-opacity="1" fill-rule="nonzero"/><path fill="#000000" d="M 19.808594 65.589844 C 19.761719 65.589844 19.714844 65.585938 19.664062 65.578125 C 19.269531 65.503906 18.996094 65.148438 19.023438 64.75 C 19.085938 63.851562 19.171875 62.941406 19.28125 62.046875 C 19.992188 56.203125 21.652344 50.527344 24.214844 45.1875 C 29.203125 34.773438 37.761719 25.5 48.316406 19.066406 C 48.644531 18.863281 49.070312 18.929688 49.324219 19.226562 C 49.574219 19.523438 49.570312 19.957031 49.320312 20.25 C 40.382812 30.652344 32.429688 41.980469 25.6875 53.917969 C 24.289062 56.386719 22.703125 59.316406 21.507812 62.34375 C 21.136719 63.28125 20.828125 64.160156 20.558594 65.035156 C 20.457031 65.371094 20.148438 65.589844 19.808594 65.589844 Z M 44.601562 23.441406 C 36.394531 29.445312 29.757812 37.261719 25.632812 45.867188 C 23.671875 49.953125 22.257812 54.242188 21.40625 58.660156 C 22.347656 56.679688 23.378906 54.808594 24.320312 53.144531 C 30.210938 42.710938 37.019531 32.738281 44.601562 23.441406 Z M 44.601562 23.441406 " fill-opacity="1" fill-rule="nonzero"/><path fill="#000000" d="M 22.492188 60.996094 C 22.355469 60.996094 22.21875 60.964844 22.09375 60.890625 C 21.71875 60.667969 21.59375 60.1875 21.8125 59.8125 C 22.003906 59.488281 22.195312 59.171875 22.394531 58.851562 C 22.402344 58.839844 22.40625 58.832031 22.414062 58.820312 C 25.941406 53.128906 30.679688 47.988281 36.117188 43.957031 C 45.386719 37.078125 57.285156 32.867188 69.613281 32.109375 C 70 32.085938 70.347656 32.34375 70.429688 32.722656 C 70.511719 33.097656 70.308594 33.480469 69.949219 33.625 C 57.203125 38.644531 44.886719 44.949219 33.347656 52.359375 C 30.039062 54.484375 26.578125 56.851562 23.691406 59.738281 C 23.515625 60.023438 23.339844 60.3125 23.171875 60.605469 C 23.023438 60.859375 22.761719 60.996094 22.492188 60.996094 Z M 64.285156 34.246094 C 54.230469 35.722656 44.71875 39.539062 37.054688 45.226562 C 33.457031 47.890625 30.179688 51.054688 27.371094 54.546875 C 29.058594 53.289062 30.800781 52.132812 32.503906 51.042969 C 42.582031 44.566406 53.253906 38.929688 64.285156 34.246094 Z M 64.285156 34.246094 " fill-opacity="1" fill-rule="nonzero"/><path fill="#000000" d="M 60.363281 18.714844 C 60.363281 19.027344 60.304688 19.332031 60.1875 19.621094 C 60.066406 19.910156 59.894531 20.164062 59.675781 20.386719 C 59.453125 20.605469 59.199219 20.777344 58.910156 20.894531 C 58.621094 21.015625 58.320312 21.074219 58.007812 21.074219 C 57.695312 21.074219 57.394531 21.015625 57.105469 20.894531 C 56.816406 20.777344 56.5625 20.605469 56.339844 20.386719 C 56.117188 20.164062 55.949219 19.910156 55.828125 19.621094 C 55.710938 19.332031 55.648438 19.027344 55.648438 18.714844 C 55.648438 18.402344 55.710938 18.101562 55.828125 17.8125 C 55.949219 17.523438 56.117188 17.269531 56.339844 17.046875 C 56.5625 16.828125 56.816406 16.65625 57.105469 16.535156 C 57.394531 16.417969 57.695312 16.355469 58.007812 16.355469 C 58.320312 16.355469 58.621094 16.417969 58.910156 16.535156 C 59.199219 16.65625 59.453125 16.828125 59.675781 17.046875 C 59.894531 17.269531 60.066406 17.523438 60.1875 17.8125 C 60.304688 18.101562 60.363281 18.402344 60.363281 18.714844 Z M 60.363281 18.714844 " fill-opacity="1" fill-rule="nonzero"/><path fill="#000000" d="M 25.242188 56.8125 C 25.105469 56.8125 24.96875 56.777344 24.84375 56.703125 C 24.46875 56.480469 24.347656 55.996094 24.566406 55.625 C 35.273438 37.605469 57.78125 17.804688 58.007812 17.605469 C 58.335938 17.320312 58.828125 17.355469 59.117188 17.679688 C 59.402344 18.007812 59.367188 18.503906 59.042969 18.789062 C 58.816406 18.988281 36.496094 38.625 25.917969 56.425781 C 25.773438 56.675781 25.511719 56.8125 25.242188 56.8125 Z M 25.242188 56.8125 " fill-opacity="1" fill-rule="nonzero"/><path fill="#000000" d="M 6.9375 118.140625 C 6.644531 118.140625 6.367188 117.976562 6.230469 117.699219 C 5.835938 116.890625 5.453125 116.058594 5.105469 115.230469 C 2.800781 109.8125 1.402344 104.066406 0.953125 98.160156 C 0.0742188 86.644531 2.851562 74.328125 8.773438 63.476562 C 8.960938 63.136719 9.363281 62.984375 9.726562 63.113281 C 10.089844 63.246094 10.304688 63.621094 10.234375 64 C 7.691406 77.484375 6.464844 91.269531 6.589844 104.984375 C 6.613281 107.820312 6.703125 111.15625 7.179688 114.371094 C 7.324219 115.371094 7.496094 116.289062 7.703125 117.179688 C 7.792969 117.570312 7.578125 117.964844 7.199219 118.097656 C 7.113281 118.128906 7.023438 118.140625 6.9375 118.140625 Z M 7.742188 69.128906 C 3.632812 78.433594 1.792969 88.523438 2.519531 98.039062 C 2.863281 102.5625 3.78125 106.984375 5.25 111.234375 C 5.078125 109.046875 5.03125 106.910156 5.015625 105 C 4.90625 93.015625 5.824219 80.976562 7.742188 69.128906 Z M 7.742188 69.128906 " fill-opacity="1" fill-rule="nonzero"/><path fill="#000000" d="M 6.964844 112.820312 C 6.964844 112.820312 6.964844 112.820312 6.960938 112.820312 C 6.527344 112.820312 6.175781 112.464844 6.179688 112.03125 C 6.183594 111.65625 6.191406 111.28125 6.203125 110.90625 C 6.203125 110.898438 6.203125 110.886719 6.203125 110.875 C 6.414062 104.179688 7.949219 97.359375 10.644531 91.144531 C 15.234375 80.546875 23.4375 70.949219 33.734375 64.121094 C 34.054688 63.90625 34.484375 63.960938 34.746094 64.246094 C 35.007812 64.53125 35.023438 64.964844 34.785156 65.269531 C 26.253906 75.996094 18.738281 87.617188 12.445312 99.808594 C 10.640625 103.308594 8.824219 107.089844 7.769531 111.03125 C 7.761719 111.371094 7.753906 111.703125 7.75 112.042969 C 7.75 112.472656 7.398438 112.820312 6.964844 112.820312 Z M 30.1875 68.636719 C 22.21875 74.949219 15.882812 83.007812 12.085938 91.773438 C 10.304688 95.878906 9.046875 100.261719 8.359375 104.691406 C 9.195312 102.757812 10.125 100.886719 11.050781 99.089844 C 16.546875 88.429688 22.976562 78.210938 30.1875 68.636719 Z M 30.1875 68.636719 " fill-opacity="1" fill-rule="nonzero"/><path fill="#000000" d="M 19.347656 58.328125 C 19.347656 58.640625 19.289062 58.941406 19.167969 59.230469 C 19.050781 59.519531 18.878906 59.777344 18.660156 59.996094 C 18.4375 60.21875 18.183594 60.390625 17.894531 60.507812 C 17.605469 60.628906 17.304688 60.6875 16.992188 60.6875 C 16.679688 60.6875 16.378906 60.628906 16.089844 60.507812 C 15.800781 60.390625 15.546875 60.21875 15.324219 59.996094 C 15.101562 59.777344 14.933594 59.519531 14.8125 59.230469 C 14.695312 58.941406 14.632812 58.640625 14.632812 58.328125 C 14.632812 58.015625 14.695312 57.714844 14.8125 57.425781 C 14.933594 57.136719 15.101562 56.882812 15.324219 56.660156 C 15.546875 56.4375 15.800781 56.269531 16.089844 56.148438 C 16.378906 56.027344 16.679688 55.96875 16.992188 55.96875 C 17.304688 55.96875 17.605469 56.027344 17.894531 56.148438 C 18.183594 56.269531 18.4375 56.4375 18.660156 56.660156 C 18.878906 56.882812 19.050781 57.136719 19.167969 57.425781 C 19.289062 57.714844 19.347656 58.015625 19.347656 58.328125 Z M 19.347656 58.328125 " fill-opacity="1" fill-rule="nonzero"/><path fill="#000000" d="M 7.257812 107.820312 C 7.257812 107.820312 7.25 107.820312 7.25 107.820312 C 6.8125 107.816406 6.46875 107.460938 6.472656 107.023438 C 6.742188 86.0625 16.339844 57.648438 16.4375 57.367188 C 16.578125 56.953125 17.027344 56.734375 17.4375 56.875 C 17.847656 57.015625 18.066406 57.464844 17.925781 57.875 C 17.828125 58.15625 8.308594 86.335938 8.046875 107.046875 C 8.039062 107.476562 7.6875 107.820312 7.257812 107.820312 Z M 7.257812 107.820312 " fill-opacity="1" fill-rule="nonzero"/><path fill="#000000" d="M 126.5625 22.320312 C 126.464844 22.320312 126.363281 22.300781 126.269531 22.261719 C 125.980469 22.144531 97.34375 10.628906 80.449219 16.265625 C 80.035156 16.402344 79.589844 16.179688 79.453125 15.765625 C 79.316406 15.355469 79.539062 14.910156 79.953125 14.773438 C 87.296875 12.324219 97.4375 12.597656 110.082031 15.589844 C 119.453125 17.804688 126.792969 20.777344 126.863281 20.804688 C 127.261719 20.96875 127.457031 21.425781 127.292969 21.832031 C 127.167969 22.136719 126.871094 22.320312 126.5625 22.320312 Z M 126.5625 22.320312 " fill-opacity="1" fill-rule="nonzero"/><path fill="#000000" d="M 51.050781 48.621094 C 51.050781 48.9375 50.992188 49.238281 50.871094 49.527344 C 50.753906 49.816406 50.582031 50.070312 50.363281 50.292969 C 50.140625 50.511719 49.886719 50.683594 49.597656 50.800781 C 49.308594 50.921875 49.007812 50.980469 48.695312 50.980469 C 48.382812 50.980469 48.082031 50.921875 47.792969 50.800781 C 47.503906 50.683594 47.25 50.511719 47.027344 50.292969 C 46.804688 50.070312 46.636719 49.816406 46.515625 49.527344 C 46.398438 49.238281 46.335938 48.9375 46.335938 48.621094 C 46.335938 48.308594 46.398438 48.007812 46.515625 47.71875 C 46.636719 47.429688 46.804688 47.175781 47.027344 46.953125 C 47.25 46.734375 47.503906 46.5625 47.792969 46.441406 C 48.082031 46.324219 48.382812 46.261719 48.695312 46.261719 C 49.007812 46.261719 49.308594 46.324219 49.597656 46.441406 C 49.886719 46.5625 50.140625 46.734375 50.363281 46.953125 C 50.582031 47.175781 50.753906 47.429688 50.871094 47.71875 C 50.992188 48.007812 51.050781 48.308594 51.050781 48.621094 Z M 51.050781 48.621094 " fill-opacity="1" fill-rule="nonzero"/><path fill="#000000" d="M 18.613281 68.167969 C 18.410156 68.167969 18.203125 68.089844 18.050781 67.929688 C 17.746094 67.617188 17.753906 67.121094 18.066406 66.816406 C 30.0625 55.121094 41.699219 50.101562 46.148438 48.488281 C 47.441406 48.019531 48.171875 47.820312 48.203125 47.8125 C 48.621094 47.695312 49.054688 47.945312 49.167969 48.367188 C 49.28125 48.785156 49.03125 49.21875 48.617188 49.332031 C 48.609375 49.332031 47.910156 49.523438 46.683594 49.96875 C 42.335938 51.546875 30.945312 56.464844 19.164062 67.949219 C 19.007812 68.09375 18.808594 68.167969 18.613281 68.167969 Z M 18.613281 68.167969 " fill-opacity="1" fill-rule="nonzero"/><path fill="#000000" d="M 111.371094 220.265625 C 102.519531 220.265625 93.667969 219.15625 85.058594 216.933594 C 84.640625 216.824219 84.382812 216.394531 84.492188 215.976562 C 84.597656 215.554688 85.027344 215.300781 85.449219 215.410156 C 93.929688 217.59375 102.566406 218.660156 111.140625 218.660156 C 138.316406 218.664062 164.945312 207.96875 184.539062 188.363281 C 210.320312 162.5625 220.671875 124.5625 211.5625 89.191406 C 211.457031 88.773438 211.707031 88.34375 212.128906 88.234375 C 212.550781 88.128906 212.976562 88.378906 213.085938 88.800781 C 217.566406 106.203125 217.523438 124.589844 212.957031 141.972656 C 208.253906 159.882812 198.808594 176.308594 185.652344 189.476562 C 172.492188 202.644531 156.082031 212.09375 138.1875 216.804688 C 129.421875 219.109375 120.398438 220.265625 111.371094 220.265625 Z M 111.371094 220.265625 " fill-opacity="1" fill-rule="nonzero"/><g clip-path="url(#bc026b2215)"><path fill="#000000" d="M 117.960938 229.867188 C 117.582031 229.867188 117.257812 229.597656 117.1875 229.222656 C 117.121094 228.84375 117.335938 228.46875 117.703125 228.339844 C 130.640625 223.804688 143.1875 217.972656 154.988281 211.007812 C 157.429688 209.570312 160.269531 207.828125 162.816406 205.804688 C 163.605469 205.179688 164.316406 204.570312 164.984375 203.945312 C 165.273438 203.671875 165.726562 203.664062 166.027344 203.921875 C 166.332031 204.183594 166.394531 204.628906 166.171875 204.960938 C 165.667969 205.707031 165.136719 206.449219 164.59375 207.171875 C 161.058594 211.878906 156.785156 215.960938 151.902344 219.308594 C 142.378906 225.828125 130.332031 229.578125 117.976562 229.871094 C 117.972656 229.867188 117.964844 229.867188 117.960938 229.867188 Z M 161.066406 209.042969 C 159.257812 210.285156 157.4375 211.390625 155.789062 212.363281 C 145.476562 218.445312 134.59375 223.671875 123.386719 227.933594 C 133.492188 226.84375 143.144531 223.394531 151.015625 218.003906 C 154.757812 215.445312 158.125 212.441406 161.066406 209.042969 Z M 161.066406 209.042969 " fill-opacity="1" fill-rule="nonzero"/></g><path fill="#000000" d="M 134.582031 214.769531 C 125.003906 214.769531 115.082031 212.40625 106.054688 207.90625 C 105.707031 207.734375 105.539062 207.335938 105.65625 206.964844 C 105.773438 206.597656 106.136719 206.367188 106.523438 206.421875 C 120.070312 208.453125 133.886719 209.160156 147.582031 208.511719 C 151.511719 208.328125 155.6875 208.011719 159.628906 206.953125 C 159.925781 206.792969 160.222656 206.632812 160.515625 206.464844 C 160.890625 206.25 161.371094 206.382812 161.585938 206.761719 C 161.800781 207.140625 161.667969 207.621094 161.289062 207.835938 C 160.964844 208.019531 160.636719 208.199219 160.308594 208.378906 C 160.296875 208.382812 160.289062 208.386719 160.277344 208.394531 C 154.378906 211.558594 147.710938 213.636719 140.984375 214.410156 C 138.875 214.652344 136.734375 214.769531 134.582031 214.769531 Z M 111.734375 208.726562 C 121.179688 212.476562 131.324219 213.9375 140.800781 212.847656 C 145.246094 212.335938 149.667969 211.238281 153.84375 209.621094 C 151.75 209.863281 149.667969 209.996094 147.648438 210.089844 C 135.683594 210.648438 123.628906 210.191406 111.734375 208.726562 Z M 111.734375 208.726562 " fill-opacity="1" fill-rule="nonzero"/><path fill="#000000" d="M 111.769531 225.316406 C 111.769531 225.628906 111.710938 225.929688 111.589844 226.21875 C 111.472656 226.507812 111.300781 226.761719 111.078125 226.984375 C 110.859375 227.207031 110.605469 227.375 110.316406 227.496094 C 110.027344 227.617188 109.726562 227.675781 109.414062 227.675781 C 109.101562 227.675781 108.800781 227.617188 108.511719 227.496094 C 108.222656 227.375 107.964844 227.207031 107.746094 226.984375 C 107.523438 226.761719 107.355469 226.507812 107.234375 226.21875 C 107.113281 225.929688 107.054688 225.628906 107.054688 225.316406 C 107.054688 225.003906 107.113281 224.703125 107.234375 224.414062 C 107.355469 224.125 107.523438 223.867188 107.746094 223.648438 C 107.964844 223.425781 108.222656 223.257812 108.511719 223.136719 C 108.800781 223.015625 109.101562 222.957031 109.414062 222.957031 C 109.726562 222.957031 110.027344 223.015625 110.316406 223.136719 C 110.605469 223.257812 110.859375 223.425781 111.078125 223.648438 C 111.300781 223.867188 111.472656 224.125 111.589844 224.414062 C 111.710938 224.703125 111.769531 225.003906 111.769531 225.316406 Z M 111.769531 225.316406 " fill-opacity="1" fill-rule="nonzero"/><path fill="#000000" d="M 87.230469 216.269531 C 87.230469 216.582031 87.171875 216.882812 87.050781 217.171875 C 86.933594 217.460938 86.761719 217.714844 86.542969 217.9375 C 86.320312 218.15625 86.066406 218.328125 85.777344 218.449219 C 85.488281 218.566406 85.1875 218.628906 84.875 218.628906 C 84.5625 218.628906 84.261719 218.566406 83.972656 218.449219 C 83.683594 218.328125 83.429688 218.15625 83.207031 217.9375 C 82.984375 217.714844 82.816406 217.460938 82.695312 217.171875 C 82.578125 216.882812 82.515625 216.582031 82.515625 216.269531 C 82.515625 215.957031 82.578125 215.65625 82.695312 215.367188 C 82.816406 215.078125 82.984375 214.820312 83.207031 214.601562 C 83.429688 214.378906 83.683594 214.207031 83.972656 214.089844 C 84.261719 213.96875 84.5625 213.910156 84.875 213.910156 C 85.1875 213.910156 85.488281 213.96875 85.777344 214.089844 C 86.066406 214.207031 86.320312 214.378906 86.542969 214.601562 C 86.761719 214.820312 86.933594 215.078125 87.050781 215.367188 C 87.171875 215.65625 87.230469 215.957031 87.230469 216.269531 Z M 87.230469 216.269531 " fill-opacity="1" fill-rule="nonzero"/><path fill="#000000" d="M 98.347656 208.484375 C 98.347656 208.796875 98.289062 209.097656 98.167969 209.386719 C 98.046875 209.675781 97.878906 209.933594 97.65625 210.152344 C 97.4375 210.375 97.179688 210.542969 96.890625 210.664062 C 96.601562 210.785156 96.300781 210.84375 95.988281 210.84375 C 95.675781 210.84375 95.375 210.785156 95.085938 210.664062 C 94.796875 210.542969 94.542969 210.375 94.324219 210.152344 C 94.101562 209.933594 93.929688 209.675781 93.8125 209.386719 C 93.691406 209.097656 93.632812 208.796875 93.632812 208.484375 C 93.632812 208.171875 93.691406 207.871094 93.8125 207.582031 C 93.929688 207.292969 94.101562 207.039062 94.324219 206.816406 C 94.542969 206.59375 94.796875 206.425781 95.085938 206.304688 C 95.375 206.183594 95.675781 206.125 95.988281 206.125 C 96.300781 206.125 96.601562 206.183594 96.890625 206.304688 C 97.179688 206.425781 97.4375 206.59375 97.65625 206.816406 C 97.878906 207.039062 98.046875 207.292969 98.167969 207.582031 C 98.289062 207.871094 98.347656 208.171875 98.347656 208.484375 Z M 98.347656 208.484375 " fill-opacity="1" fill-rule="nonzero"/><path fill="#000000" d="M 208.707031 72.082031 C 208.707031 72.394531 208.644531 72.695312 208.527344 72.984375 C 208.40625 73.273438 208.234375 73.53125 208.015625 73.75 C 207.792969 73.972656 207.539062 74.140625 207.25 74.261719 C 206.960938 74.382812 206.660156 74.441406 206.347656 74.441406 C 206.035156 74.441406 205.734375 74.382812 205.445312 74.261719 C 205.15625 74.140625 204.902344 73.972656 204.679688 73.75 C 204.460938 73.53125 204.289062 73.273438 204.167969 72.984375 C 204.050781 72.695312 203.988281 72.394531 203.988281 72.082031 C 203.988281 71.769531 204.050781 71.46875 204.167969 71.179688 C 204.289062 70.890625 204.460938 70.636719 204.679688 70.414062 C 204.902344 70.191406 205.15625 70.023438 205.445312 69.902344 C 205.734375 69.78125 206.035156 69.722656 206.347656 69.722656 C 206.660156 69.722656 206.960938 69.78125 207.25 69.902344 C 207.539062 70.023438 207.792969 70.191406 208.015625 70.414062 C 208.234375 70.636719 208.40625 70.890625 208.527344 71.179688 C 208.644531 71.46875 208.707031 71.769531 208.707031 72.082031 Z M 208.707031 72.082031 " fill-opacity="1" fill-rule="nonzero"/><path fill="#000000" d="M 194.332031 48.949219 C 194.332031 49.261719 194.273438 49.5625 194.15625 49.851562 C 194.035156 50.140625 193.863281 50.394531 193.644531 50.617188 C 193.421875 50.835938 193.167969 51.007812 192.878906 51.128906 C 192.589844 51.246094 192.289062 51.308594 191.976562 51.308594 C 191.664062 51.308594 191.363281 51.246094 191.074219 51.128906 C 190.785156 51.007812 190.53125 50.835938 190.308594 50.617188 C 190.089844 50.394531 189.917969 50.140625 189.796875 49.851562 C 189.679688 49.5625 189.617188 49.261719 189.617188 48.949219 C 189.617188 48.636719 189.679688 48.332031 189.796875 48.042969 C 189.917969 47.753906 190.089844 47.5 190.308594 47.28125 C 190.53125 47.058594 190.785156 46.886719 191.074219 46.769531 C 191.363281 46.648438 191.664062 46.589844 191.976562 46.589844 C 192.289062 46.589844 192.589844 46.648438 192.878906 46.769531 C 193.167969 46.886719 193.421875 47.058594 193.644531 47.28125 C 193.863281 47.5 194.035156 47.753906 194.15625 48.042969 C 194.273438 48.332031 194.332031 48.636719 194.332031 48.949219 Z M 194.332031 48.949219 " fill-opacity="1" fill-rule="nonzero"/><path fill="#000000" d="M 174.46875 30.324219 C 174.46875 30.636719 174.410156 30.9375 174.289062 31.226562 C 174.171875 31.515625 174 31.773438 173.777344 31.992188 C 173.558594 32.214844 173.300781 32.386719 173.015625 32.503906 C 172.726562 32.625 172.425781 32.683594 172.113281 32.683594 C 171.796875 32.683594 171.496094 32.625 171.210938 32.503906 C 170.921875 32.386719 170.664062 32.214844 170.445312 31.992188 C 170.222656 31.773438 170.054688 31.515625 169.933594 31.226562 C 169.8125 30.9375 169.753906 30.636719 169.753906 30.324219 C 169.753906 30.011719 169.8125 29.710938 169.933594 29.421875 C 170.054688 29.132812 170.222656 28.878906 170.445312 28.65625 C 170.664062 28.4375 170.921875 28.265625 171.210938 28.144531 C 171.496094 28.027344 171.796875 27.964844 172.113281 27.964844 C 172.425781 27.964844 172.726562 28.027344 173.015625 28.144531 C 173.300781 28.265625 173.558594 28.4375 173.777344 28.65625 C 174 28.878906 174.171875 29.132812 174.289062 29.421875 C 174.410156 29.710938 174.46875 30.011719 174.46875 30.324219 Z M 174.46875 30.324219 " fill-opacity="1" fill-rule="nonzero"/><path fill="#000000" d="M 108.703125 226.292969 C 108.335938 226.292969 108.007812 226.035156 107.933594 225.660156 C 107.847656 225.230469 108.125 224.820312 108.550781 224.738281 C 108.84375 224.679688 137.988281 218.839844 156.042969 208.714844 C 156.421875 208.503906 156.898438 208.640625 157.113281 209.015625 C 157.324219 209.398438 157.1875 209.875 156.808594 210.085938 C 138.535156 220.335938 109.152344 226.21875 108.855469 226.277344 C 108.804688 226.289062 108.753906 226.292969 108.703125 226.292969 Z M 108.703125 226.292969 " fill-opacity="1" fill-rule="nonzero"/><path fill="#000000" d="M 174.003906 211.304688 C 173.78125 211.304688 173.558594 211.207031 173.40625 211.027344 C 173.152344 210.730469 173.15625 210.296875 173.40625 210.003906 C 182.347656 199.601562 190.300781 188.273438 197.042969 176.335938 C 198.4375 173.871094 200.027344 170.9375 201.222656 167.914062 C 201.59375 166.972656 201.902344 166.09375 202.167969 165.21875 C 202.289062 164.835938 202.671875 164.605469 203.0625 164.675781 C 203.457031 164.75 203.730469 165.109375 203.703125 165.507812 C 203.640625 166.40625 203.554688 167.3125 203.445312 168.207031 C 202.734375 174.054688 201.074219 179.726562 198.511719 185.066406 C 193.523438 195.480469 184.964844 204.757812 174.410156 211.191406 C 174.285156 211.269531 174.144531 211.304688 174.003906 211.304688 Z M 201.324219 171.597656 C 200.378906 173.574219 199.351562 175.449219 198.410156 177.113281 C 192.519531 187.542969 185.707031 197.511719 178.128906 206.8125 C 186.335938 200.808594 192.972656 192.996094 197.09375 184.386719 C 199.058594 180.296875 200.472656 176.007812 201.324219 171.597656 Z M 201.324219 171.597656 " fill-opacity="1" fill-rule="nonzero"/><path fill="#000000" d="M 153.066406 198.140625 C 152.699219 198.140625 152.378906 197.886719 152.300781 197.527344 C 152.214844 197.148438 152.417969 196.765625 152.777344 196.625 C 165.527344 191.601562 177.839844 185.296875 189.378906 177.886719 C 192.691406 175.761719 196.152344 173.398438 199.035156 170.507812 C 199.214844 170.222656 199.386719 169.933594 199.558594 169.644531 C 199.777344 169.269531 200.257812 169.140625 200.632812 169.363281 C 201.007812 169.582031 201.132812 170.066406 200.914062 170.441406 C 200.726562 170.761719 200.53125 171.082031 200.332031 171.402344 C 200.328125 171.414062 200.324219 171.421875 200.316406 171.429688 C 196.789062 177.121094 192.050781 182.265625 186.609375 186.296875 C 177.339844 193.175781 165.445312 197.382812 153.113281 198.144531 C 153.097656 198.140625 153.082031 198.140625 153.066406 198.140625 Z M 195.359375 175.707031 C 193.671875 176.964844 191.933594 178.121094 190.230469 179.210938 C 180.144531 185.6875 169.476562 191.324219 158.441406 196.007812 C 168.5 194.53125 178.011719 190.71875 185.675781 185.03125 C 189.273438 182.363281 192.550781 179.199219 195.359375 175.707031 Z M 195.359375 175.707031 " fill-opacity="1" fill-rule="nonzero"/><path fill="#000000" d="M 167.078125 211.535156 C 167.078125 211.847656 167.019531 212.148438 166.898438 212.4375 C 166.78125 212.726562 166.609375 212.984375 166.386719 213.203125 C 166.167969 213.425781 165.914062 213.597656 165.625 213.714844 C 165.335938 213.835938 165.035156 213.894531 164.722656 213.894531 C 164.410156 213.894531 164.109375 213.835938 163.820312 213.714844 C 163.53125 213.597656 163.273438 213.425781 163.054688 213.203125 C 162.832031 212.984375 162.664062 212.726562 162.542969 212.4375 C 162.421875 212.148438 162.363281 211.847656 162.363281 211.535156 C 162.363281 211.222656 162.421875 210.921875 162.542969 210.632812 C 162.664062 210.34375 162.832031 210.089844 163.054688 209.867188 C 163.273438 209.644531 163.53125 209.476562 163.820312 209.355469 C 164.109375 209.238281 164.410156 209.175781 164.722656 209.175781 C 165.035156 209.175781 165.335938 209.238281 165.625 209.355469 C 165.914062 209.476562 166.167969 209.644531 166.386719 209.867188 C 166.609375 210.089844 166.78125 210.34375 166.898438 210.632812 C 167.019531 210.921875 167.078125 211.222656 167.078125 211.535156 Z M 167.078125 211.535156 " fill-opacity="1" fill-rule="nonzero"/><path fill="#000000" d="M 164.203125 212.84375 C 163.984375 212.84375 163.765625 212.75 163.609375 212.574219 C 163.324219 212.246094 163.359375 211.75 163.683594 211.464844 C 163.910156 211.269531 186.230469 191.628906 196.808594 173.828125 C 197.03125 173.457031 197.515625 173.332031 197.886719 173.550781 C 198.257812 173.773438 198.382812 174.257812 198.160156 174.628906 C 187.453125 192.648438 164.945312 212.453125 164.722656 212.648438 C 164.570312 212.777344 164.386719 212.84375 164.203125 212.84375 Z M 164.203125 212.84375 " fill-opacity="1" fill-rule="nonzero"/><path fill="#000000" d="M 213.265625 167.1875 C 213.175781 167.1875 213.089844 167.171875 213 167.140625 C 212.636719 167.007812 212.421875 166.632812 212.492188 166.253906 C 215.035156 152.769531 216.265625 138.980469 216.140625 125.265625 C 216.117188 122.429688 216.023438 119.097656 215.550781 115.882812 C 215.402344 114.882812 215.230469 113.964844 215.027344 113.074219 C 214.9375 112.683594 215.152344 112.289062 215.53125 112.15625 C 215.90625 112.023438 216.324219 112.191406 216.5 112.550781 C 216.894531 113.363281 217.273438 114.191406 217.621094 115.019531 C 219.929688 120.441406 221.328125 126.183594 221.773438 132.089844 C 222.65625 143.605469 219.878906 155.921875 213.957031 166.773438 C 213.8125 167.035156 213.546875 167.1875 213.265625 167.1875 Z M 217.480469 119.019531 C 217.648438 121.207031 217.695312 123.34375 217.710938 125.253906 C 217.820312 137.234375 216.902344 149.277344 214.988281 161.125 C 219.09375 151.816406 220.9375 141.730469 220.207031 132.210938 C 219.863281 127.691406 218.949219 123.265625 217.480469 119.019531 Z M 217.480469 119.019531 " fill-opacity="1" fill-rule="nonzero"/><path fill="#000000" d="M 188.558594 166.261719 C 188.34375 166.261719 188.128906 166.175781 187.980469 166.007812 C 187.714844 165.722656 187.703125 165.289062 187.941406 164.988281 C 196.472656 154.257812 203.988281 142.640625 210.28125 130.445312 C 212.085938 126.945312 213.898438 123.167969 214.957031 119.222656 C 214.964844 118.886719 214.972656 118.550781 214.976562 118.210938 C 214.980469 117.78125 215.332031 117.429688 215.761719 117.429688 C 215.765625 117.429688 215.765625 117.429688 215.769531 117.429688 C 216.203125 117.433594 216.550781 117.789062 216.546875 118.222656 C 216.546875 118.597656 216.539062 118.972656 216.523438 119.34375 C 216.523438 119.355469 216.523438 119.367188 216.523438 119.375 C 216.3125 126.070312 214.777344 132.894531 212.085938 139.109375 C 207.492188 149.703125 199.292969 159.304688 188.996094 166.128906 C 188.859375 166.21875 188.710938 166.261719 188.558594 166.261719 Z M 214.367188 125.5625 C 213.535156 127.5 212.601562 129.371094 211.675781 131.167969 C 206.179688 141.820312 199.753906 152.039062 192.539062 161.617188 C 200.511719 155.304688 206.84375 147.242188 210.640625 138.480469 C 212.421875 134.375 213.683594 129.996094 214.367188 125.5625 Z M 214.367188 125.5625 " fill-opacity="1" fill-rule="nonzero"/><path fill="#000000" d="M 208.09375 171.925781 C 208.09375 172.238281 208.035156 172.539062 207.914062 172.828125 C 207.796875 173.117188 207.625 173.375 207.40625 173.59375 C 207.183594 173.816406 206.929688 173.988281 206.640625 174.105469 C 206.351562 174.226562 206.050781 174.285156 205.738281 174.285156 C 205.425781 174.285156 205.125 174.226562 204.835938 174.105469 C 204.546875 173.988281 204.292969 173.816406 204.070312 173.59375 C 203.847656 173.375 203.679688 173.117188 203.558594 172.828125 C 203.4375 172.539062 203.378906 172.238281 203.378906 171.925781 C 203.378906 171.613281 203.4375 171.3125 203.558594 171.023438 C 203.679688 170.734375 203.847656 170.480469 204.070312 170.257812 C 204.292969 170.035156 204.546875 169.867188 204.835938 169.746094 C 205.125 169.625 205.425781 169.566406 205.738281 169.566406 C 206.050781 169.566406 206.351562 169.625 206.640625 169.746094 C 206.929688 169.867188 207.183594 170.035156 207.40625 170.257812 C 207.625 170.480469 207.796875 170.734375 207.914062 171.023438 C 208.035156 171.3125 208.09375 171.613281 208.09375 171.925781 Z M 208.09375 171.925781 " fill-opacity="1" fill-rule="nonzero"/><path fill="#000000" d="M 205.546875 173.421875 C 205.460938 173.421875 205.375 173.40625 205.292969 173.378906 C 204.878906 173.238281 204.660156 172.792969 204.800781 172.378906 C 204.898438 172.097656 214.417969 143.917969 214.683594 123.210938 C 214.6875 122.773438 215.035156 122.421875 215.480469 122.433594 C 215.914062 122.4375 216.261719 122.792969 216.253906 123.230469 C 215.984375 144.195312 206.386719 172.605469 206.289062 172.890625 C 206.179688 173.214844 205.875 173.421875 205.546875 173.421875 Z M 205.546875 173.421875 " fill-opacity="1" fill-rule="nonzero"/><path fill="#000000" d="M 131.191406 217.136719 C 125.800781 217.136719 119.605469 216.3125 112.652344 214.667969 C 103.28125 212.453125 95.941406 209.476562 95.871094 209.449219 C 95.46875 209.285156 95.273438 208.828125 95.4375 208.425781 C 95.601562 208.019531 96.058594 207.828125 96.460938 207.992188 C 96.75 208.109375 125.382812 219.625 142.28125 213.988281 C 142.691406 213.851562 143.136719 214.074219 143.273438 214.484375 C 143.410156 214.898438 143.1875 215.34375 142.777344 215.480469 C 139.472656 216.582031 135.601562 217.136719 131.191406 217.136719 Z M 131.191406 217.136719 " fill-opacity="1" fill-rule="nonzero"/><path fill="#000000" d="M 176.390625 181.632812 C 176.390625 181.945312 176.332031 182.246094 176.210938 182.535156 C 176.09375 182.824219 175.921875 183.078125 175.703125 183.300781 C 175.480469 183.523438 175.226562 183.691406 174.9375 183.8125 C 174.648438 183.933594 174.347656 183.992188 174.035156 183.992188 C 173.722656 183.992188 173.421875 183.933594 173.132812 183.8125 C 172.84375 183.691406 172.589844 183.523438 172.367188 183.300781 C 172.144531 183.078125 171.976562 182.824219 171.855469 182.535156 C 171.738281 182.246094 171.675781 181.945312 171.675781 181.632812 C 171.675781 181.320312 171.738281 181.019531 171.855469 180.730469 C 171.976562 180.441406 172.144531 180.183594 172.367188 179.964844 C 172.589844 179.742188 172.84375 179.570312 173.132812 179.453125 C 173.421875 179.332031 173.722656 179.273438 174.035156 179.273438 C 174.347656 179.273438 174.648438 179.332031 174.9375 179.453125 C 175.226562 179.570312 175.480469 179.742188 175.703125 179.964844 C 175.921875 180.183594 176.09375 180.441406 176.210938 180.730469 C 176.332031 181.019531 176.390625 181.320312 176.390625 181.632812 Z M 176.390625 181.632812 " fill-opacity="1" fill-rule="nonzero"/><path fill="#000000" d="M 174.324219 182.46875 C 173.976562 182.46875 173.660156 182.238281 173.566406 181.890625 C 173.449219 181.46875 173.699219 181.039062 174.117188 180.925781 C 174.125 180.921875 174.820312 180.730469 176.046875 180.289062 C 180.394531 178.707031 191.789062 173.789062 203.566406 162.308594 C 203.878906 162.003906 204.375 162.011719 204.675781 162.324219 C 204.980469 162.636719 204.972656 163.132812 204.660156 163.433594 C 192.664062 175.128906 181.027344 180.152344 176.578125 181.765625 C 175.285156 182.234375 174.554688 182.433594 174.523438 182.441406 C 174.457031 182.460938 174.390625 182.46875 174.324219 182.46875 Z M 174.324219 182.46875 " fill-opacity="1" fill-rule="nonzero"/></svg>